<?xml version="1.0" ?><!DOCTYPE svg  PUBLIC '-//W3C//DTD SVG 1.1//EN'  'http://www.w3.org/Graphics/SVG/1.1/DTD/svg11.dtd'><svg enable-background="new 0 0 800 800" height="800px" id="Layer_1" version="1.1" viewBox="0 0 800 800" width="800px" xml:space="preserve" xmlns="http://www.w3.org/2000/svg" xmlns:xlink="http://www.w3.org/1999/xlink"><g><path d="M376.017,431.797V75.791c0-29.175-23.752-52.926-52.928-52.926h-88.24   c-29.175,0-52.927,23.751-52.927,52.926v356.025c-55.29,33.757-89.243,93.843-89.243,159.029   c0,102.722,83.569,186.291,186.29,186.291s186.289-83.569,186.289-186.291C465.258,525.641,431.305,465.572,376.017,431.797z    M278.969,745.062c-85.037,0-154.216-69.18-154.216-154.217c0-56.648,30.983-108.645,80.849-135.671   c5.173-2.811,8.395-8.217,8.395-14.104V75.791c0-11.491,9.361-20.852,20.853-20.852h88.24c11.491,0,20.853,9.361,20.853,20.852   v365.279c0,5.888,3.222,11.294,8.395,14.104c49.866,27.026,80.848,79.022,80.848,135.671   C433.184,675.882,364.006,745.062,278.969,745.062z" fill="#4D4D4D"/><path d="M323.161,494.281V116.475c0-27.385-19.814-49.669-44.192-49.669c-24.36,0-44.174,22.284-44.174,49.669   v376.5c-39.467,16.896-65.224,55.397-65.224,99.195c0,59.567,48.471,108.019,108.02,108.019   c59.567,0,108.037-48.451,108.037-108.019C385.628,549.839,360.963,511.841,323.161,494.281z M326.598,650.091   c-0.322-0.018-0.627-0.09-0.949-0.09h-93.359c-1.163,0-2.291,0.143-3.383,0.376c-6.909-5.781-12.727-12.763-17.219-20.62h131.824   C339.091,637.49,333.363,644.381,326.598,650.091z M353.105,597.683H204.832c-0.984,0-1.951,0.125-2.882,0.287   c-0.161-1.915-0.304-3.849-0.304-5.8c0-5.101,0.662-10.041,1.61-14.893c0.52,0.055,1.038,0.162,1.575,0.162h147.11   c0.948,4.797,1.611,9.701,1.611,14.73c0,1.861-0.144,3.688-0.287,5.531C353.213,597.701,353.159,597.683,353.105,597.683z    M266.869,493.029v-20.244h24.217v20.244H266.869z M278.969,98.88c6.462,0,12.117,8.215,12.117,17.595V440.71h-24.217V116.475   C266.869,107.095,272.525,98.88,278.969,98.88z M242.223,525.086c0.071,0,0.161,0.018,0.251,0.018h70.646   c9.504,5.011,17.54,12.027,24.02,20.262H217.827C224.342,537.042,232.593,530.114,242.223,525.086z" fill="#4D4D4D"/><path d="M471.219,373.34c16.771,0,30.357-13.585,30.357-30.338c0-16.753-13.586-30.357-30.357-30.357   c-16.752,0-30.338,13.604-30.338,30.357C440.881,359.755,454.467,373.34,471.219,373.34z" fill="#4D4D4D"/><path d="M676.965,312.645c-16.734,0-30.338,13.604-30.338,30.357c0,16.753,13.604,30.338,30.338,30.338   c16.771,0,30.355-13.585,30.355-30.338C707.32,326.249,693.736,312.645,676.965,312.645z" fill="#4D4D4D"/><path d="M574.459,415.903c-16.754,0-30.338,13.585-30.338,30.355c0,16.735,13.584,30.34,30.338,30.34   c16.771,0,30.355-13.604,30.355-30.34C604.814,429.488,591.23,415.903,574.459,415.903z" fill="#4D4D4D"/><path d="M574.459,270.118c16.771,0,30.355-13.603,30.355-30.356c0-16.772-13.584-30.357-30.355-30.357   c-16.754,0-30.338,13.585-30.338,30.357C544.121,256.515,557.705,270.118,574.459,270.118z" fill="#4D4D4D"/><path d="M687.4,385.618l-50.975-2.917c-0.537-0.805-1.146-1.575-1.844-2.272l-37.428-37.427l37.428-37.427   c1.395-1.396,2.434-3.007,3.201-4.707l49.617-2.845c8.842-0.52,15.59-8.091,15.088-16.933c-0.518-8.842-8.055-15.608-16.932-15.089   l-36.084,2.077v-39.109c0-8.859-7.178-16.038-16.037-16.038c-8.842,0-16.039,7.178-16.039,16.038v50.349   c-2.004,0.77-3.883,1.951-5.492,3.58l-37.428,37.427l-37.445-37.444c-1.342-1.342-2.898-2.345-4.51-3.115l-2.9-50.188   c-0.518-8.842-8.035-15.662-16.932-15.089c-8.842,0.5-15.607,8.091-15.088,16.932l2.076,36.066H460.57   c-8.861,0-16.037,7.196-16.037,16.038c0,8.86,7.176,16.037,16.037,16.037h50.061c0.771,2.184,1.988,4.26,3.723,5.996l37.445,37.444   l-37.445,37.444c-1.09,1.091-1.932,2.327-2.648,3.633H460.57c-8.861,0-16.037,7.177-16.037,16.037   c0,8.842,7.176,16.038,16.037,16.038h39.107l-2.076,36.065c-0.52,8.842,6.246,16.432,15.088,16.932   c0.307,0.019,0.627,0.037,0.932,0.037c8.43,0,15.502-6.587,16-15.125l2.758-47.755c1.684-0.787,3.275-1.807,4.652-3.186   l37.445-37.444l37.428,37.426c1.609,1.611,3.488,2.793,5.492,3.58v47.986c0,8.859,7.197,16.037,16.039,16.037   c8.859,0,16.037-7.178,16.037-16.037v-39.109l36.084,2.077c8.859,0.536,16.414-6.247,16.932-15.089   C702.99,393.708,696.242,386.137,687.4,385.618z" fill="#4D4D4D"/></g></svg>