<?xml version="1.0" ?><!DOCTYPE svg  PUBLIC '-//W3C//DTD SVG 1.1//EN'  'http://www.w3.org/Graphics/SVG/1.1/DTD/svg11.dtd'><svg enable-background="new 0 0 512 512" height="512px" id="Layer_1" version="1.1" viewBox="0 0 512 512" width="512px" xml:space="preserve" xmlns="http://www.w3.org/2000/svg" xmlns:xlink="http://www.w3.org/1999/xlink"><polygon fill="#FBC031" points="28.565,460 255.955,66.149 483.348,460   " stroke="#FF1D25" stroke-miterlimit="10" stroke-width="32"/><line fill="none" stroke="#FF1D25" stroke-miterlimit="10" stroke-width="17" x1="138" x2="375" y1="376.5" y2="376.5"/><path d="M174,350.652  c7.826-5.177,11.305-18.639,3.479-33.135c-7.826-14.497-7.699-34.17,4.411-38.313" fill="none" stroke="#FF1D25" stroke-miterlimit="10" stroke-width="9"/><path d="M220,350.652  c7.826-8.331,11.305-29.995,3.479-53.324c-7.826-23.33-7.699-54.99,4.411-61.656" fill="none" stroke="#FF1D25" stroke-miterlimit="10" stroke-width="9"/><path d="M326,350.652  c7.826-5.177,11.305-18.639,3.479-33.135c-7.826-14.497-7.699-34.17,4.411-38.313" fill="none" stroke="#FF1D25" stroke-miterlimit="10" stroke-width="9"/><path d="M276,350.652  c7.826-8.331,11.305-29.995,3.479-53.324c-7.826-23.33-7.699-54.99,4.411-61.656" fill="none" stroke="#FF1D25" stroke-miterlimit="10" stroke-width="9"/><g><path d="M206.875,400.848h8.427v11.857h9.505v-11.857h8.427v31.848h-8.427v-12.641h-9.505v12.641h-8.427V400.848z" fill="#FF1D25"/><path d="M238.921,416.625c0-10.485,5.978-16.365,14.797-16.365s14.797,5.929,14.797,16.365   c0,10.484-5.978,16.658-14.797,16.658S238.921,427.109,238.921,416.625z M259.891,416.625c0-5.782-2.352-9.113-6.173-9.113   c-3.822,0-6.173,3.331-6.173,9.113c0,5.781,2.352,9.407,6.173,9.407C257.539,426.032,259.891,422.406,259.891,416.625z" fill="#FF1D25"/><path d="M279.296,407.903h-8.427v-7.056h25.281v7.056h-8.428v24.792h-8.427V407.903z" fill="#FF1D25"/></g></svg>